<svg xmlns="http://www.w3.org/2000/svg" viewBox="0 0 1969.56 545.41"><defs><style>.cls-1{fill:#da005b;}.cls-2{fill:#ff7b20;}.cls-3{fill:#ffbf00;}.cls-4{fill:#ff005a;}.cls-5{fill:#f54f40;}.cls-6{fill:#b2155d;}</style></defs><g id="Layer_2" data-name="Layer 2"><g id="Layer_1-2" data-name="Layer 1"><path class="cls-1" d="M207.12,105.29,126.8,151.41a82.21,82.21,0,0,1-85.51,1.52L83.88,178l162.83,95.87.12.07L371,201a82.38,82.38,0,0,1,82.19-.1l-.22-.13L240.33,78l46.13,26.67C261.43,91.23,230.64,92.68,207.12,105.29Z"/><path class="cls-2" d="M318.11,410.22h0A82.26,82.26,0,0,0,288,297.86l-41.17-23.92L123.48,345a82.21,82.21,0,0,1-83.71-.77l.09.22,80.18,46a82.21,82.21,0,0,1,3.6,144.07h0l171.69-98.95A82,82,0,0,0,318.11,410.22Z"/><path class="cls-3" d="M120,390.46,40,344.39l-.13-.08a74.73,74.73,0,0,1-8.41-5.79,81.59,81.59,0,0,1-19.57-23.23h0C5,303.34.53,286.22,0,273.31L.08,462.43a84.89,84.89,0,0,0,2.09,18.83c0,.07,0,.13,0,.19.13.58.28,1.15.42,1.73.1.36.19.73.29,1.09l.3,1.1C16.13,530.67,66,557,111.3,540.4l.65-.25.67-.26A82.21,82.21,0,0,0,120,390.46Z"/><path class="cls-4" d="M371,201,246.83,273.94,288,297.86a82.26,82.26,0,0,1,30.11,112.36h0a82,82,0,0,1-22.78,25.36L453.05,344.5a83.61,83.61,0,0,0,24.32-21.18c.25-.32.5-.63.73-.95l.4-.54c.45-.61.89-1.22,1.32-1.84h0a83.85,83.85,0,0,0,3-89.92c-.06-.1-.12-.19-.17-.29-.43-.71-.87-1.42-1.32-2.12l0-.06c-.46-.71-.93-1.42-1.42-2.13l-.25-.35c-.41-.6-.84-1.19-1.27-1.78l-.25-.33A82.35,82.35,0,0,0,371,201Z"/><path class="cls-5" d="M246.71,273.87,83.88,178,41.29,152.93A82.51,82.51,0,0,1,0,83.32v192a86.94,86.94,0,0,0,31.41,63.23,80.66,80.66,0,0,0,8.33,5.75,82.21,82.21,0,0,0,83.71.77l123.35-71.1Z"/><path class="cls-6" d="M240.33,78,124.6,11.19A83.93,83.93,0,0,0,101,1.92,83.84,83.84,0,0,0,29.49,19.65c-.19.15-.38.3-.56.46l-.54.47A81.91,81.91,0,0,0,0,83.11v.21A82.78,82.78,0,0,0,126.8,151.41l80.32-46.12c23.52-12.61,54.31-14.06,79.34-.61Z"/><g id="Layer_2-2" data-name="Layer 2"><path class="cls-6" d="M719,369.5a124.16,124.16,0,0,1-46-8.61,111.55,111.55,0,0,1-38.61-25.47Q617.62,318.56,608,293.71t-9.68-57.33q0-42.42,16.24-72.15t43.67-45.35Q685.6,103.27,719,103.26q49.35,0,77.57,22.9t37.8,64.78L785,198q-6.93-22.36-22.63-35.76t-40.2-13.58q-24.33-.36-40.47,10.47t-24.23,30.71q-8.09,19.88-8.08,46.5t8.08,46.15q8.07,19.53,24.23,30.35t40.47,11.18a68.19,68.19,0,0,0,29.9-5.68,55.53,55.53,0,0,0,22.63-19q9.24-13,13.14-33.19H747.37V228.93h91.94a75,75,0,0,1,.53,8.16q.18,5.85.18,6.74,0,36.75-14.91,65.15a110,110,0,0,1-42.06,44.46Q755.89,369.51,719,369.5Z"/><path class="cls-6" d="M928.77,369.5q-20.6,0-34.88-7.9a53.87,53.87,0,0,1-21.65-21.12,58.88,58.88,0,0,1-7.37-29.2A69.43,69.43,0,0,1,869,287a49.69,49.69,0,0,1,13.23-19.44q9.14-8.43,24.58-14.11a178.91,178.91,0,0,1,25.38-6.92q14.73-3,33.37-5.77t41-6.12l-17.39,9.58q0-17-8.17-25t-27.33-8a54.4,54.4,0,0,0-22.19,5.14q-11.53,5.16-16.15,18.29l-43.66-13.85A74.08,74.08,0,0,1,899,182.07q20.06-14.91,54.67-14.91,25.38,0,45.08,7.81a56.23,56.23,0,0,1,29.82,27,57.19,57.19,0,0,1,6.75,21.29q1.07,10.66,1.06,23.79V364.18H994.09V324.77l6,8.17q-14,19.35-30.26,27.95T928.77,369.5Zm10.29-38q13.32,0,22.46-4.71a49.86,49.86,0,0,0,14.55-10.74A47,47,0,0,0,983.44,306a48.91,48.91,0,0,0,4.35-18.2q.62-10.38.62-17.3l14.2,3.55q-21.48,3.56-34.79,5.94t-21.48,4.35A128.88,128.88,0,0,0,932,288.56a49.77,49.77,0,0,0-11.44,6.13,21.55,21.55,0,0,0-6.39,7.19,18.36,18.36,0,0,0-2,8.69,19.17,19.17,0,0,0,3.29,11.27,20.46,20.46,0,0,0,9.32,7.19A37.55,37.55,0,0,0,939.06,331.52Z"/><path class="cls-6" d="M1082.12,364.18V172.48h42.6V236h6V364.18Zm115.73,0V250.93q0-19-9-29.55t-24.77-10.56q-15.07,0-24.22,10.38t-9.14,26.89l-20.24-14.19a61.88,61.88,0,0,1,9.41-33.73,67.9,67.9,0,0,1,25.29-23.61,73,73,0,0,1,35.59-8.69q22.55,0,37,9.58A57.48,57.48,0,0,1,1239.21,203a87.53,87.53,0,0,1,6.92,35.15v126Zm115.37,0V250.93q0-19-9-29.55t-24.76-10.56a32.3,32.3,0,0,0-17.58,4.7,31.84,31.84,0,0,0-11.62,13.14,43.29,43.29,0,0,0-4.17,19.43l-20.24-13.48q0-19.71,9.32-34.79a65.06,65.06,0,0,1,25-23.52,72.57,72.57,0,0,1,34.88-8.43q32.84,0,49.61,19.43t16.77,50.86v126Z"/><path class="cls-6" d="M1493.2,369.5q-29.48,0-51.92-12.69a91.46,91.46,0,0,1-35.14-35q-12.69-22.27-12.69-51,0-31.41,12.42-54.66A90.39,90.39,0,0,1,1440.13,180q21.82-12.87,50.23-12.87,30.17,0,51.29,14.2t31.24,39.93Q1583,247,1580,281.82h-47.74V264.07q0-29.3-9.32-42.16t-30.44-12.86q-24.67,0-36.3,15t-11.63,44.29q0,26.81,11.63,41.44t34.17,14.65q14.19,0,24.31-6.22a39.6,39.6,0,0,0,15.45-17.92l48.28,13.84q-10.83,26.28-34.17,40.83A94.61,94.61,0,0,1,1493.2,369.5Zm-63.55-87.68V246h127.09v35.86Z"/><path class="cls-5" d="M1634.45,364.18V108.58h48.28v255.6Z"/><path class="cls-5" d="M1845.67,369.5q-38.34,0-66.12-16.68t-42.78-46.69q-15-30-15-69.75t15-69.76q15-30,42.78-46.68t66.12-16.68q38.34,0,66.11,16.68t42.78,46.68q15,30,15,69.76t-15,69.75q-15,30-42.78,46.69T1845.67,369.5Zm0-45.44q24.32.36,40.47-10.47t24.22-30.71q8.09-19.87,8.08-46.5t-8.08-46.15q-8.07-19.53-24.22-30.35t-40.47-11.18q-24.33-.36-40.47,10.47T1781,189.87q-8.09,19.89-8.08,46.51t8.08,46.15q8.07,19.53,24.23,30.35T1845.67,324.06Z"/></g></g></g></svg>